<svg version="1.1" id="Layer_1" xmlns="http://www.w3.org/2000/svg" xmlns:xlink="http://www.w3.org/1999/xlink" x="0px" y="0px"
	 width="100%" viewBox="0 0 1080 1080" enable-background="new 0 0 1080 1080" xml:space="preserve">
<path fill="#9FA9D8" opacity="1.000000" stroke="none" 
	d="
M1.000000,252.000000 
	C1.000000,169.342819 1.025621,87.185593 0.908314,5.028576 
	C0.903515,1.667703 1.488761,0.901587 4.970661,0.902601 
	C362.262726,1.006685 719.554810,1.008830 1076.846924,0.884264 
	C1080.721924,0.882913 1081.074219,2.007987 1081.073486,5.345964 
	C1080.995117,362.471405 1080.993774,719.596863 1081.089966,1076.722290 
	C1081.090942,1080.251099 1080.461792,1081.102905 1076.778687,1081.101807 
	C719.653259,1080.992554 362.527771,1080.991699 5.402359,1081.107178 
	C1.434900,1081.108398 0.916944,1079.971313 0.918105,1076.403320 
	C1.007471,801.768860 1.000000,527.134460 1.000000,252.000000 
z"/>
<path fill="#020203" opacity="1.000000" stroke="none" 
	d="
M272.690338,593.264160 
	C284.127075,615.944336 295.368164,638.307312 306.640991,660.733459 
	C308.549225,659.668030 308.110321,658.373108 308.102722,657.318787 
	C307.809326,616.714539 307.583344,576.109253 307.031891,535.508362 
	C306.965637,530.631104 308.134155,528.462646 313.021057,527.385559 
	C322.123657,525.379395 331.099091,522.765320 340.065521,520.188843 
	C343.354523,519.243713 345.269592,519.433228 347.210541,522.918335 
	C366.948669,558.360474 386.917877,593.673828 406.831024,629.018372 
	C407.643799,630.461060 408.541809,631.855652 409.514648,633.461792 
	C411.546692,631.943665 410.552246,630.017700 410.466614,628.420105 
	C408.319275,588.369568 406.182312,548.317993 403.812012,508.280365 
	C403.571289,504.214600 404.845459,502.733093 408.570679,501.808716 
	C419.565491,499.080536 430.517700,496.157379 441.399414,493.009125 
	C445.425964,491.844177 446.932037,492.260803 446.960724,496.966461 
	C447.243896,543.404907 447.718567,589.842102 448.156219,636.279541 
	C448.291016,650.584412 448.386169,664.890808 448.715607,679.191528 
	C448.786438,682.265747 447.915710,683.621521 444.877472,684.386658 
	C433.578888,687.231750 422.301941,690.189819 411.124023,693.470520 
	C407.881012,694.422363 406.668762,693.214539 405.286285,690.772766 
	C384.646851,654.318176 363.956177,617.892517 343.253326,581.473816 
	C342.535492,580.211060 342.053650,578.721313 340.556244,577.911987 
	C338.522095,579.162292 339.402679,581.183533 339.418701,582.832520 
	C339.823151,624.424988 340.255432,666.017212 340.801544,707.607971 
	C340.845703,710.969543 340.021118,712.614441 336.480774,713.474487 
	C325.483765,716.145935 314.524536,719.027405 303.694641,722.303223 
	C299.829315,723.472412 298.474152,722.029114 296.809235,719.056458 
	C280.889160,690.631165 264.845001,662.275330 248.836014,633.899780 
	C235.022766,609.416199 221.283371,584.890320 207.310287,560.498230 
	C205.352463,557.080444 205.938080,556.078064 209.491669,555.173279 
	C221.116486,552.213196 232.706619,549.107056 244.250977,545.847656 
	C247.184158,545.019592 248.682999,545.514954 250.086792,548.364075 
	C257.437744,563.283325 265.003601,578.096680 272.690338,593.264160 
z"/>
<path fill="#020203" opacity="1.000000" stroke="none" 
	d="
M554.266907,511.996887 
	C554.163452,496.678497 554.080566,481.858398 553.830933,467.041107 
	C553.779724,464.005005 554.928345,462.588287 557.829407,461.847534 
	C568.000427,459.250671 578.143066,456.535248 588.249084,453.696136 
	C590.807434,452.977386 592.255920,453.601074 593.519714,455.862793 
	C611.533203,488.100220 629.588745,520.314209 647.656128,552.521484 
	C650.388916,557.393066 653.232788,562.202209 656.764771,568.321350 
	C657.606445,560.640625 656.817261,554.455627 656.494385,548.311401 
	C654.607178,512.406067 652.604675,476.506653 650.506897,440.613068 
	C650.359253,438.085968 651.005615,436.919495 653.346619,436.300110 
	C665.589600,433.061066 677.837585,429.836975 690.039612,426.448608 
	C694.940002,425.087891 693.443787,428.881531 693.471252,430.760620 
	C693.829041,455.229340 694.033264,479.700287 694.268005,504.170746 
	C694.614563,540.290222 694.887817,576.410645 695.395325,612.527832 
	C695.448914,616.334778 694.207153,617.692078 690.683899,618.559631 
	C680.017151,621.186157 669.407654,624.066895 658.853638,627.117493 
	C655.442627,628.103455 653.717712,627.656433 651.814880,624.272095 
	C631.192505,587.592712 610.347046,551.038818 589.533875,514.466858 
	C588.906860,513.365051 588.374695,512.061646 586.647095,511.538177 
	C585.483887,515.283936 586.216553,519.090088 586.243713,522.787842 
	C586.531860,562.060852 586.888062,601.333679 587.418335,640.604004 
	C587.474365,644.752808 586.455994,646.688538 582.173523,647.688416 
	C571.479004,650.185303 560.889526,653.156616 550.326660,656.178162 
	C547.311523,657.040649 545.615479,656.715637 543.967163,653.768860 
	C525.700195,621.112610 507.307404,588.526733 488.926575,555.934265 
	C477.317963,535.350159 465.776520,514.726685 453.944763,494.271423 
	C451.867828,490.680725 452.862793,489.930450 456.205688,489.073212 
	C467.826843,486.093048 479.419159,482.993042 490.970612,479.753632 
	C493.831207,478.951416 495.296478,479.258057 496.763794,482.214417 
	C508.812561,506.490356 521.066406,530.664673 533.280762,554.858276 
	C539.995789,568.158936 546.754700,581.437378 554.228516,594.515259 
	C554.228516,567.175598 554.228516,539.835876 554.266907,511.996887 
z"/>
<path fill="#000000" opacity="1.000000" stroke="none" 
	d="
M981.000793,999.000000 
	C981.013000,847.008789 981.193604,695.517029 980.702820,544.027466 
	C980.665466,532.500244 987.149292,528.375488 994.999207,522.476318 
	C994.999207,524.980713 994.999268,526.576172 994.999268,528.171631 
	C994.999207,703.661560 994.982849,879.151428 995.096741,1054.641235 
	C995.099487,1058.896484 994.285461,1060.117554 989.758606,1060.115601 
	C695.275635,1059.986694 400.792603,1059.988281 106.309586,1060.104492 
	C101.941246,1060.106201 100.878624,1059.122803 100.889030,1054.709351 
	C101.049385,986.713623 101.055855,918.717285 100.875229,850.721619 
	C100.863388,846.263611 102.167992,843.645081 105.925697,841.615540 
	C108.820244,840.052185 111.432114,837.965515 114.999084,835.549805 
	C114.999084,837.937622 114.999084,839.654114 114.999084,841.370544 
	C114.999100,907.866699 115.036293,974.362915 114.906998,1040.858887 
	C114.899223,1044.858765 115.633194,1046.109619 119.955673,1046.107910 
	C405.272522,1045.989258 690.589417,1045.991333 975.906250,1046.095093 
	C979.986511,1046.096558 981.208252,1045.248901 981.114624,1040.994507 
	C980.810425,1027.168823 981.000793,1013.332336 981.000793,999.000000 
z"/>
<path fill="#000000" opacity="1.000000" stroke="none" 
	d="
M994.999146,160.000000 
	C994.999146,175.665527 994.932617,190.831604 995.058594,205.996094 
	C995.082153,208.829453 994.475037,210.568161 991.610168,211.669922 
	C988.225769,212.971436 985.068115,214.862610 981.516235,216.646805 
	C980.590759,215.011642 981.025269,213.184387 981.024414,211.486160 
	C980.995911,154.490463 980.938416,97.494553 981.117554,40.499409 
	C981.132141,35.849979 979.838013,34.899952 975.402710,34.901634 
	C690.424194,35.009705 405.445648,35.012566 120.467163,34.882633 
	C115.750877,34.880486 114.902893,36.260895 114.905830,40.629223 
	C115.016281,204.950119 114.999084,369.271118 114.999092,533.592102 
	C114.999092,534.758667 115.093369,535.934875 114.974991,537.089355 
	C114.829536,538.507812 115.762466,540.406677 114.288239,541.234802 
	C112.825195,542.056580 111.592918,540.462280 110.389824,539.687073 
	C107.877060,538.068115 105.632309,535.940125 102.709976,535.101562 
	C101.205811,534.669861 100.979996,533.839050 101.001129,532.585388 
	C101.023590,531.252625 101.001152,529.919067 101.001144,528.585876 
	C101.000893,361.431793 101.023178,194.277664 100.889740,27.123674 
	C100.885872,22.276342 101.783592,20.863070 106.976196,20.865751 
	C400.954010,21.017601 694.931885,21.014521 988.909729,20.884809 
	C993.834229,20.882635 995.163940,21.891600 995.136353,27.010212 
	C994.897766,71.172432 994.999146,115.336487 994.999146,160.000000 
z"/>
<path fill="#020202" opacity="1.000000" stroke="none" 
	d="
M722.332397,494.757263 
	C719.591370,480.300629 718.763062,466.182281 721.388123,452.111847 
	C725.460266,430.284363 737.736023,414.603210 757.971802,405.331360 
	C776.085449,397.031769 794.922791,393.179321 814.803650,396.931885 
	C835.669312,400.870239 850.019897,413.312988 859.449585,431.882629 
	C861.246643,435.421387 862.487488,439.239899 864.045959,442.903412 
	C865.067017,445.303741 864.416687,446.555084 861.820984,447.236115 
	C849.745361,450.404358 837.700073,453.688416 825.650146,456.953979 
	C823.072388,457.652557 821.804749,456.799988 820.867859,454.185089 
	C818.590820,447.829559 815.036133,442.212799 809.522644,438.107605 
	C799.719543,430.808411 789.285645,431.868866 778.693848,436.022125 
	C768.064392,440.190155 763.761597,448.598053 763.068665,459.440186 
	C762.477783,468.684204 763.963806,477.729309 765.859375,486.685974 
	C769.309570,502.987518 773.567993,519.085022 781.296082,533.974609 
	C789.427368,549.640930 800.483765,554.792419 816.028687,550.610352 
	C831.608521,546.418884 839.614014,535.110596 838.972534,518.198120 
	C838.953552,517.698914 838.930298,517.199219 838.887634,516.701660 
	C838.198975,508.673645 838.199646,508.679291 830.476440,510.761475 
	C824.044434,512.495605 817.584473,514.131653 811.184570,515.976562 
	C808.196655,516.837891 806.547913,516.272522 805.745056,512.994629 
	C803.883728,505.395142 801.831238,497.838806 799.671936,490.317871 
	C798.874207,487.539276 799.701721,486.513336 802.423767,485.796112 
	C823.984741,480.115448 845.516907,474.324127 867.029541,468.462738 
	C869.477600,467.795715 870.583923,468.116638 871.286926,470.763885 
	C879.150513,500.374054 887.099304,529.961731 895.107361,559.533203 
	C895.908142,562.490234 895.083008,563.659363 892.125305,564.375061 
	C884.362549,566.253540 876.657043,568.383118 868.977966,570.584656 
	C866.193054,571.383118 864.709412,570.591125 863.434021,568.035034 
	C861.232056,563.622253 859.535156,558.904968 856.507629,554.974976 
	C855.970947,555.176697 855.486511,555.224731 855.438049,555.396057 
	C851.457092,569.468994 842.008240,578.743042 828.828003,583.905884 
	C807.137512,592.402283 785.594788,593.480286 765.415833,579.474731 
	C752.751953,570.685181 744.374084,558.264282 737.838684,544.602844 
	C730.327271,528.901489 725.379272,512.336121 722.332397,494.757263 
z"/>
<path fill="#0F1014" opacity="1.000000" stroke="none" 
	d="
M639.811340,922.997192 
	C639.560730,910.101013 639.560730,897.554749 639.560730,884.703796 
	C637.037842,885.702087 637.158142,887.614014 636.623047,889.065979 
	C633.397766,897.817932 630.247803,906.597717 627.090149,915.374512 
	C626.464905,917.112366 626.059753,918.827393 623.544617,918.824097 
	C621.025635,918.820801 620.617737,917.075745 619.997620,915.356262 
	C616.832886,906.580261 613.697205,897.793701 610.479065,889.037415 
	C609.944763,887.583862 610.001038,885.722778 608.194458,884.849976 
	C606.834106,885.902405 607.484375,887.292175 607.486511,888.484375 
	C607.505005,898.980286 607.563843,909.476318 607.647339,919.971924 
	C607.664490,922.131592 607.635803,923.853027 604.592529,923.854614 
	C601.509460,923.856262 601.580078,922.072571 601.583069,919.946716 
	C601.604248,904.949219 601.565918,889.951599 601.631958,874.954407 
	C601.639526,873.227722 600.570068,870.525818 604.020203,870.682251 
	C606.632446,870.800659 609.592285,869.570862 610.911438,873.627686 
	C614.103943,883.445435 617.685181,893.136719 621.113220,902.877747 
	C621.772217,904.750488 622.446533,906.617798 623.145752,908.577454 
	C625.434021,907.607849 625.297363,905.538269 625.859558,903.954346 
	C629.369751,894.064087 633.032654,884.216614 636.124634,874.194458 
	C637.528503,869.643982 640.661011,870.561890 643.628967,870.732117 
	C647.278442,870.941589 645.729553,873.976990 645.745300,875.758240 
	C645.871887,890.088074 645.653748,904.422363 645.907288,918.748840 
	C645.991760,923.521851 644.331482,924.758423 639.811340,922.997192 
z"/>
<path fill="#0D0E11" opacity="1.000000" stroke="none" 
	d="
M587.053040,278.009308 
	C587.055176,273.849670 587.177307,270.182861 587.019897,266.528046 
	C586.903198,263.819092 588.445251,263.651093 590.483948,263.632721 
	C592.534668,263.614258 593.461487,264.276825 593.451904,266.508667 
	C593.385010,282.153717 593.420593,297.799194 593.411804,313.444519 
	C593.410950,314.948975 593.531494,316.616852 591.345459,316.725983 
	C588.864319,316.849945 586.546265,317.108612 584.970093,314.208405 
	C580.918518,306.753632 576.536255,299.479034 572.314392,292.116211 
	C569.203979,286.691833 566.138123,281.241943 562.916870,275.564453 
	C561.175903,277.083801 561.911560,278.626068 561.916626,279.967407 
	C561.958130,290.950500 562.034668,301.933563 562.134888,312.916321 
	C562.154419,315.056580 562.170959,316.785767 559.126892,316.847290 
	C555.902771,316.912445 555.741333,315.206482 555.750549,312.766541 
	C555.805908,297.953583 555.738892,283.140076 555.834351,268.327545 
	C555.844482,266.757111 554.633545,264.216370 557.410950,263.821136 
	C559.905396,263.466156 562.539978,262.909912 564.309937,266.108032 
	C570.594421,277.463867 577.133911,288.678619 583.582214,299.943695 
	C584.436707,301.436493 585.322510,302.911377 587.053040,304.065155 
	C587.053040,295.545868 587.053040,287.026550 587.053040,278.009308 
z"/>
<path fill="#0E0F14" opacity="1.000000" stroke="none" 
	d="
M650.269897,185.569000 
	C652.777100,190.016220 655.101807,194.146301 657.752625,198.855713 
	C659.167786,196.687210 658.657776,195.059280 658.648071,193.532028 
	C658.580322,182.882278 658.540344,172.231964 658.384338,161.583405 
	C658.347839,159.090515 658.599304,157.524811 661.780579,157.574005 
	C665.259888,157.627792 664.810242,159.780594 664.809082,161.942017 
	C664.801453,176.589020 664.842285,191.236221 664.756226,205.882721 
	C664.745972,207.624313 665.890381,210.237106 662.783203,210.688385 
	C660.091553,211.079330 657.765747,210.924683 656.093018,207.887207 
	C649.912231,196.664261 643.447571,185.597321 637.054077,174.492249 
	C636.264832,173.121445 635.966125,171.347290 634.095642,170.529144 
	C632.750916,171.458649 633.228943,172.844803 633.234558,174.043594 
	C633.285339,184.694153 633.389954,195.344482 633.412903,205.995041 
	C633.417542,208.171204 634.219727,210.788513 630.319885,210.849930 
	C626.499634,210.910110 627.047791,208.461456 627.046631,206.170273 
	C627.038940,191.523270 627.008728,176.876083 627.091309,162.229553 
	C627.100281,160.641403 625.980957,158.123947 628.783508,157.784409 
	C631.294922,157.480148 633.930725,156.940475 635.678467,160.134232 
	C640.311218,168.599930 645.262695,176.891190 650.269897,185.569000 
z"/>
<path fill="#0B0C0F" opacity="1.000000" stroke="none" 
	d="
M504.249939,901.638062 
	C503.857544,895.493469 504.077881,889.872437 506.058655,884.434387 
	C509.535797,874.887939 517.007385,869.584534 526.921997,869.665710 
	C536.517944,869.744263 543.864014,875.053589 547.127563,884.590881 
	C549.905579,892.709290 549.947327,900.965698 547.248840,909.112732 
	C543.928040,919.138428 536.264343,924.803467 526.477417,924.762390 
	C516.754761,924.721619 509.155396,918.926208 505.859100,908.888428 
	C505.136719,906.688599 504.802216,904.361450 504.249939,901.638062 
z"/>
<path fill="#0E0F14" opacity="1.000000" stroke="none" 
	d="
M696.187988,310.546570 
	C699.093811,308.493408 701.115845,297.214294 699.092163,295.460571 
	C697.470581,294.055298 695.244934,294.992584 693.298767,294.784393 
	C691.192383,294.559113 688.333557,295.756592 688.399963,291.778900 
	C688.460205,288.173737 691.044434,289.041473 693.027954,289.001648 
	C705.805115,288.745026 705.805542,288.765961 705.805542,301.599609 
	C705.805542,302.098999 705.805542,302.598419 705.805542,303.097809 
	C705.805481,313.348053 703.530640,315.964966 693.250366,317.540833 
	C681.627380,319.322479 671.456909,313.512177 667.572144,302.445282 
	C664.549988,293.835602 664.527954,285.036163 668.140442,276.580261 
	C673.744141,263.463287 690.401917,258.332733 701.585022,266.139923 
	C703.104309,267.200562 705.913635,267.965118 703.765015,271.034210 
	C701.952148,273.623779 700.575439,272.651855 698.506653,271.306641 
	C690.193787,265.901276 679.409302,268.802948 675.212158,277.770966 
	C671.251953,286.232758 671.435913,294.976044 675.601318,303.331238 
	C679.221985,310.594025 686.624634,313.092041 696.187988,310.546570 
z"/>
<path fill="#0D0E12" opacity="1.000000" stroke="none" 
	d="
M776.821289,205.094315 
	C766.666687,215.630386 747.944641,213.515533 740.956421,200.963913 
	C734.781738,189.873520 734.756592,178.205856 741.196594,167.140808 
	C747.506287,156.299713 763.334534,153.152420 773.127930,160.380096 
	C774.560547,161.437363 776.927307,162.254807 774.961792,164.999695 
	C773.155762,167.522003 771.803528,166.695999 769.694214,165.318329 
	C761.390320,159.894623 750.604004,162.771713 746.389160,171.737137 
	C742.417542,180.185257 742.654602,188.896988 746.736267,197.300186 
	C749.264526,202.505295 753.776428,205.171112 759.509766,205.615707 
	C769.626831,206.400253 774.541870,199.712234 770.571289,190.281265 
	C769.334839,187.344345 766.177551,189.203400 763.921204,188.811661 
	C762.097778,188.495041 759.662537,189.485596 759.637085,186.211899 
	C759.622620,184.348709 759.884888,182.833954 762.279358,183.004044 
	C762.610352,183.027527 762.945435,183.010818 763.277771,182.995468 
	C776.988403,182.362411 776.992371,182.362152 776.985046,196.201508 
	C776.983582,199.030701 776.939819,201.859863 776.821289,205.094315 
z"/>
<path fill="#0D0E12" opacity="1.000000" stroke="none" 
	d="
M432.632507,165.204987 
	C433.594635,162.239517 430.003082,157.434830 436.314056,157.623688 
	C438.348206,157.684570 439.311279,158.250366 439.302032,160.490875 
	C439.237366,176.142593 439.231598,191.794861 439.303619,207.446503 
	C439.315918,210.118271 438.197327,210.849823 435.693665,210.833664 
	C433.185059,210.817474 432.587067,209.662064 432.612305,207.452576 
	C432.680786,201.459015 432.516205,195.460983 432.679413,189.471130 
	C432.755737,186.671417 431.847839,185.645447 428.991974,185.729675 
	C423.169220,185.901428 417.333588,185.910629 411.511658,185.724869 
	C408.521240,185.629471 407.879456,186.919342 407.945221,189.584167 
	C408.088898,195.408463 407.937378,201.239441 408.011475,207.066345 
	C408.040649,209.362259 407.700256,210.809235 404.818512,210.851410 
	C401.873962,210.894501 401.144531,209.714401 401.159668,207.006195 
	C401.245087,191.687698 401.252747,176.368164 401.151733,161.049850 
	C401.134277,158.402008 402.067657,157.601471 404.616394,157.591110 
	C407.212738,157.580521 408.120514,158.474243 408.034668,161.083115 
	C407.870483,166.072983 408.136963,171.078079 407.936859,176.065308 
	C407.812775,179.157776 408.958405,180.149277 411.979736,180.045837 
	C417.468170,179.857925 422.973816,179.833313 428.460144,180.049210 
	C431.825134,180.181625 432.860992,178.830399 432.673676,175.661087 
	C432.477509,172.342545 432.631470,169.003296 432.632507,165.204987 
z"/>
<path fill="#0B0C0F" opacity="1.000000" stroke="none" 
	d="
M525.976318,203.293671 
	C536.574829,208.959457 545.062683,204.015686 545.667603,191.771774 
	C546.168030,181.642441 545.910278,171.473480 545.891296,161.322266 
	C545.886963,158.994202 546.217163,157.513702 549.099060,157.604828 
	C551.415222,157.678070 552.327087,158.368637 552.296875,160.794891 
	C552.161804,171.610809 552.597412,182.450546 552.033447,193.240234 
	C551.295410,207.360916 541.020447,214.523682 527.558350,211.066727 
	C519.930847,209.108047 516.042725,203.706741 515.104431,196.464615 
	C513.539917,184.389572 514.733154,172.197617 514.444824,160.060043 
	C514.382568,157.437820 516.179016,157.773407 517.833252,157.653763 
	C520.081055,157.491165 521.164246,158.217697 521.151367,160.713776 
	C521.100159,170.698303 521.138306,180.684570 521.279968,190.668259 
	C521.344788,195.231720 522.154053,199.637817 525.976318,203.293671 
z"/>
<path fill="#0F1014" opacity="1.000000" stroke="none" 
	d="
M445.443604,316.329407 
	C447.020020,307.105255 450.757233,298.739563 453.511261,290.060883 
	C455.926117,282.451080 458.740601,274.966492 461.078064,267.334564 
	C461.982178,264.382599 463.476929,263.533020 466.425323,263.549744 
	C469.235168,263.565704 470.490021,264.510284 471.371429,267.188904 
	C476.363831,282.361298 481.585266,297.458191 486.627533,312.614471 
	C487.047272,313.876038 488.964752,316.022522 486.121429,316.586548 
	C484.094116,316.988739 481.247375,317.904236 480.148773,314.750458 
	C478.945496,311.296021 477.738220,307.822998 476.882782,304.273712 
	C476.199371,301.437988 474.692383,300.596771 471.919708,300.736176 
	C467.109619,300.978027 461.638489,299.525085 457.645874,301.375244 
	C453.593567,303.253082 453.996307,309.466156 452.550293,313.783905 
	C451.194092,317.833374 448.385284,316.696564 445.443604,316.329407 
z"/>
<path fill="#08090B" opacity="1.000000" stroke="none" 
	d="
M722.910645,902.020142 
	C718.733521,903.115723 714.875549,902.800781 711.061401,902.700439 
	C708.300354,902.627869 707.200500,903.479553 707.322449,906.366272 
	C707.519104,911.023499 707.265503,915.698547 707.412598,920.359436 
	C707.494202,922.942749 706.623291,923.813110 703.982117,923.834717 
	C701.115417,923.858154 700.756775,922.523987 700.766846,920.164673 
	C700.832092,904.835083 700.839111,889.504883 700.759216,874.175415 
	C700.746643,871.758423 701.171753,870.506714 703.998718,870.624268 
	C709.155640,870.838806 714.335999,870.519226 719.489929,870.768066 
	C729.011108,871.227783 734.380249,875.642944 735.422485,883.505981 
	C736.664185,892.874390 732.669495,898.954163 722.910645,902.020142 
z"/>
<path fill="#0D0E12" opacity="1.000000" stroke="none" 
	d="
M304.023224,200.927277 
	C311.186707,207.004852 317.511292,207.380447 324.621979,202.055237 
	C326.567505,200.598221 327.759796,200.085327 329.514832,202.176605 
	C331.604797,204.666962 329.563538,205.754593 328.132050,206.986420 
	C319.070160,214.784485 304.351379,212.896179 297.127289,203.054489 
	C289.760437,193.018387 289.806915,175.318192 297.226196,165.357407 
	C304.032806,156.219177 317.228302,153.747177 326.140472,160.079315 
	C327.632935,161.139694 330.477661,161.901810 328.307068,164.991989 
	C326.474823,167.600555 325.114044,166.622467 323.054657,165.263885 
	C315.125092,160.032791 305.187561,162.761414 301.357605,171.682022 
	C297.113098,181.568161 297.393646,191.457642 304.023224,200.927277 
z"/>
<path fill="#0B0C0F" opacity="1.000000" stroke="none" 
	d="
M430.911926,915.276062 
	C438.356934,920.072205 443.772827,920.018066 450.457428,914.787537 
	C452.408569,913.260803 453.341919,913.393127 454.876160,915.047424 
	C456.715820,917.031006 455.620209,918.194946 454.158051,919.572876 
	C445.466309,927.764160 430.078796,926.096802 422.713318,916.130920 
	C415.304535,906.106445 415.307739,888.356873 422.719971,878.412781 
	C429.673584,869.083801 443.265900,866.702148 452.063141,873.358704 
	C453.474060,874.426208 455.807465,875.245300 453.802917,877.999023 
	C451.946045,880.549805 450.645752,879.635254 448.605377,878.265564 
	C441.380951,873.415588 432.397797,875.483337 427.731201,882.845703 
	C421.926727,892.003174 423.268921,906.950134 430.911926,915.276062 
z"/>
<path fill="#0F1014" opacity="1.000000" stroke="none" 
	d="
M379.007141,298.653656 
	C374.142365,298.751923 369.678284,298.744171 365.214813,298.792419 
	C363.425140,298.811737 361.934692,298.734772 361.886475,296.294678 
	C361.839600,293.922668 363.154785,293.608124 365.041931,293.632599 
	C369.009369,293.684113 372.978119,293.670563 376.946014,293.641296 
	C381.165100,293.610199 381.201813,295.621704 379.007141,298.653656 
z"/>
<path fill="#0F1014" opacity="1.000000" stroke="none" 
	d="
M960.492065,774.692749 
	C957.911194,773.587708 957.368530,771.819885 958.205444,769.682556 
	C958.834412,768.076111 960.296997,767.644470 961.912720,767.886902 
	C963.855469,768.178284 964.918030,769.504639 964.816589,771.327881 
	C964.687927,773.639893 963.216736,774.848083 960.492065,774.692749 
z"/>
<path fill="#0F1014" opacity="1.000000" stroke="none" 
	d="
M136.156494,243.623474 
	C138.475296,245.178543 138.715530,247.068497 137.446213,248.942230 
	C136.386673,250.506317 134.618042,250.631653 132.993240,249.800034 
	C131.535492,249.053894 130.769714,247.655411 131.274887,246.064148 
	C131.953537,243.926483 133.438858,242.783630 136.156494,243.623474 
z"/>
<path fill="#0F1014" opacity="1.000000" stroke="none" 
	d="
M961.880188,858.661621 
	C958.665588,858.404968 957.340759,856.831055 958.066956,853.985901 
	C958.559204,852.057007 960.153381,851.562012 961.978394,851.798279 
	C963.460571,851.990173 964.369934,852.948181 964.715698,854.325684 
	C965.260681,856.496155 964.057678,857.746643 961.880188,858.661621 
z"/>
<path fill="#0E0F14" opacity="1.000000" stroke="none" 
	d="
M963.154053,900.056519 
	C960.618713,901.121216 958.917358,900.524170 958.075378,898.270813 
	C957.518250,896.779602 957.783936,895.258179 959.236572,894.331787 
	C960.774658,893.350769 962.444458,893.323730 963.763611,894.693359 
	C965.449280,896.443542 965.195251,898.239380 963.154053,900.056519 
z"/>
<path fill="#0F1014" opacity="1.000000" stroke="none" 
	d="
M137.679993,161.033691 
	C138.475769,163.487854 138.242157,165.352737 135.810883,166.133743 
	C134.052597,166.698547 132.539917,166.159866 131.591812,164.476196 
	C130.863113,163.182144 130.970016,161.883743 131.950287,160.797501 
	C133.744888,158.808884 135.641251,158.926010 137.679993,161.033691 
z"/>
<path fill="#0F1014" opacity="1.000000" stroke="none" 
	d="
M958.720032,160.496033 
	C960.892273,158.925934 962.680969,159.036484 964.168274,160.933731 
	C965.231079,162.289505 965.099182,163.730026 964.042847,165.026230 
	C962.824280,166.521561 961.182190,166.773575 959.587891,165.878967 
	C957.408142,164.655777 957.493713,162.747269 958.720032,160.496033 
z"/>
<path fill="#0E0F14" opacity="1.000000" stroke="none" 
	d="
M133.491333,893.894714 
	C136.117355,893.479797 137.785065,894.207764 138.106827,896.700317 
	C138.312698,898.295166 137.729919,899.608643 136.113174,900.301819 
	C134.290634,901.083130 132.819077,900.521423 131.807831,898.992798 
	C130.428528,896.907837 131.222641,895.254700 133.491333,893.894714 
z"/>
<path fill="#0D0E12" opacity="1.000000" stroke="none" 
	d="
M959.025085,915.400879 
	C961.135620,914.314941 962.799194,914.338074 964.155151,916.093262 
	C965.074219,917.283142 965.169678,918.484802 964.375366,919.759644 
	C963.372192,921.369629 961.897156,922.096436 960.152771,921.351562 
	C957.310730,920.138123 957.391907,918.007568 959.025085,915.400879 
z"/>
<path fill="#0D0E12" opacity="1.000000" stroke="none" 
	d="
M964.540588,982.390259 
	C963.020447,984.626343 961.261292,985.117554 959.267212,983.838684 
	C957.619934,982.782288 957.505615,981.093018 958.211609,979.456360 
	C958.880676,977.905396 960.317993,977.347656 961.901855,977.689087 
	C964.214233,978.187683 965.170349,979.714233 964.540588,982.390259 
z"/>
<path fill="#0F1014" opacity="1.000000" stroke="none" 
	d="
M136.133636,82.142303 
	C133.488632,82.826294 131.893509,81.937836 131.260223,79.668304 
	C130.803543,78.031715 131.604187,76.734406 133.052017,75.964447 
	C134.727753,75.073296 136.448380,75.350647 137.468277,76.880219 
	C138.709305,78.741409 138.530182,80.653046 136.133636,82.142303 
z"/>
<path fill="#0D0E12" opacity="1.000000" stroke="none" 
	d="
M958.497375,181.780731 
	C960.490112,179.959167 962.288574,179.846008 963.935852,181.611328 
	C964.888306,182.632126 965.291626,183.880341 964.555054,185.248291 
	C963.780701,186.686310 962.600159,187.581558 960.941101,187.288635 
	C957.859985,186.744614 957.466675,184.700058 958.497375,181.780731 
z"/>
<path fill="#0D0E12" opacity="1.000000" stroke="none" 
	d="
M131.162079,981.024658 
	C131.847580,978.171143 133.412766,977.125732 135.967468,977.847168 
	C137.427551,978.259521 138.075378,979.389771 138.134842,980.814331 
	C138.213211,982.691467 137.364914,984.035889 135.454346,984.387695 
	C133.076736,984.825439 131.740433,983.597229 131.162079,981.024658 
z"/>
<path fill="#0D0E12" opacity="1.000000" stroke="none" 
	d="
M131.190155,917.353455 
	C132.214798,915.176697 133.603378,914.260254 135.719086,914.757935 
	C136.995575,915.058289 137.743484,915.917480 137.971954,917.127625 
	C138.347534,919.117126 137.915497,920.916138 135.691620,921.403198 
	C132.800339,922.036316 131.366364,920.510071 131.190155,917.353455 
z"/>
<path fill="#0F1014" opacity="1.000000" stroke="none" 
	d="
M131.107300,225.903809 
	C131.708466,223.366287 132.985779,222.012253 135.396805,222.407578 
	C137.063461,222.680862 137.997162,223.837479 138.100113,225.514618 
	C138.199112,227.127121 137.656250,228.563675 136.005707,229.070496 
	C133.479996,229.846039 131.860504,228.747070 131.107300,225.903809 
z"/>
<path fill="#0F1014" opacity="1.000000" stroke="none" 
	d="
M964.535400,227.277435 
	C962.958069,229.551300 961.114502,229.945816 959.201660,228.611130 
	C957.656189,227.532730 957.528137,225.805603 958.280518,224.132034 
	C958.892578,222.770569 960.158752,222.140717 961.541687,222.359238 
	C964.090271,222.761948 965.241394,224.337036 964.535400,227.277435 
z"/>
<path fill="#0F1014" opacity="1.000000" stroke="none" 
	d="
M131.471802,832.734070 
	C133.054688,830.464539 134.895889,830.068176 136.811310,831.411743 
	C138.359970,832.497925 138.485413,834.228821 137.724350,835.896973 
	C137.109268,837.245178 135.849899,837.893799 134.454422,837.667908 
	C131.899490,837.254395 130.761917,835.672302 131.471802,832.734070 
z"/>
<path fill="#0F1014" opacity="1.000000" stroke="none" 
	d="
M959.646362,831.067993 
	C962.256348,830.291199 963.931274,831.049988 964.740295,833.266296 
	C965.336304,834.899048 964.500549,836.213379 963.206909,837.119202 
	C961.833984,838.080444 960.243469,838.017212 959.080078,836.864197 
	C957.205017,835.005859 957.482300,833.028381 959.646362,831.067993 
z"/>
<path fill="#0F1014" opacity="1.000000" stroke="none" 
	d="
M131.728943,370.825867 
	C133.566803,368.737335 135.377731,368.549896 137.127731,370.189484 
	C138.511810,371.486237 138.507660,373.180023 137.523849,374.709137 
	C136.609238,376.130676 135.090103,376.466949 133.580322,375.899597 
	C131.355133,375.063354 130.675491,373.388885 131.728943,370.825867 
z"/>
<path fill="#0E0F14" opacity="1.000000" stroke="none" 
	d="
M961.038879,711.806152 
	C958.312622,711.095398 957.469543,709.472717 958.066040,707.211792 
	C958.486816,705.616821 959.698059,704.765930 961.405762,704.806763 
	C963.369751,704.853699 964.598328,706.054077 964.800537,707.809570 
	C965.064880,710.104004 963.793823,711.541443 961.038879,711.806152 
z"/>
<path fill="#0D0E12" opacity="1.000000" stroke="none" 
	d="
M964.814453,959.332886 
	C964.639465,962.503174 963.178833,963.986206 960.303711,963.362854 
	C958.063965,962.877197 957.671997,961.067322 958.039429,959.094299 
	C958.264160,957.887878 959.019165,957.035583 960.294250,956.734680 
	C962.411255,956.235107 963.788635,957.160645 964.814453,959.332886 
z"/>
<path fill="#0D0E12" opacity="1.000000" stroke="none" 
	d="
M135.010834,963.545105 
	C132.340912,963.253479 130.933563,961.936279 131.192154,959.604919 
	C131.388580,957.834106 132.682831,956.673157 134.597626,956.602295 
	C136.265823,956.540588 137.552460,957.287903 137.931595,958.958679 
	C138.430588,961.157532 137.838776,962.900269 135.010834,963.545105 
z"/>
<path fill="#0F1014" opacity="1.000000" stroke="none" 
	d="
M137.806625,311.261566 
	C136.211243,313.531036 134.410736,313.871246 132.512344,312.439331 
	C131.251175,311.488068 130.663025,310.109863 131.426331,308.481140 
	C132.225311,306.776306 133.551392,305.868256 135.414047,306.326508 
	C137.807098,306.915283 138.441956,308.652649 137.806625,311.261566 
z"/>
<path fill="#0F1014" opacity="1.000000" stroke="none" 
	d="
M138.117065,435.746979 
	C137.582474,438.492249 136.082352,439.512238 133.750748,438.986786 
	C132.141739,438.624176 131.179642,437.379395 131.170273,435.748291 
	C131.159836,433.925171 132.088104,432.498444 133.993713,432.215240 
	C136.334961,431.867340 137.808258,432.934998 138.117065,435.746979 
z"/>
<path fill="#08090B" opacity="1.000000" stroke="none" 
	d="
M152.434906,58.010822 
	C152.965729,55.338043 154.375488,54.283054 156.777481,54.740589 
	C158.545624,55.077389 159.237244,56.293983 159.237381,57.973198 
	C159.237518,59.638466 158.595566,60.885273 156.813980,61.232239 
	C154.426804,61.697147 152.983337,60.694557 152.434906,58.010822 
z"/>
<path fill="#08090B" opacity="1.000000" stroke="none" 
	d="
M259.431702,55.537010 
	C261.662720,54.240437 263.566040,54.164787 264.843903,56.296154 
	C265.548798,57.471897 265.473206,58.913887 264.626099,60.075245 
	C263.612762,61.464558 262.076538,61.738586 260.614258,61.099243 
	C258.052094,59.979004 257.936829,58.017220 259.431702,55.537010 
z"/>
<path fill="#08090B" opacity="1.000000" stroke="none" 
	d="
M476.721802,59.881538 
	C474.815125,61.795719 472.946594,61.905476 471.279266,60.252235 
	C470.130585,59.113243 470.013855,57.596920 470.957489,56.140957 
	C471.907867,54.674465 473.299377,54.327602 474.859253,54.789421 
	C477.417694,55.546879 477.409729,57.488415 476.721802,59.881538 
z"/>
<path fill="#08090B" opacity="1.000000" stroke="none" 
	d="
M937.594727,60.425091 
	C936.385925,58.193802 936.238159,56.292961 938.407227,55.013992 
	C939.617981,54.300102 941.044373,54.390709 942.173035,55.267994 
	C943.475098,56.279926 943.911072,57.727020 943.210022,59.265625 
	C942.021790,61.873512 940.028809,61.757492 937.594727,60.425091 
z"/>
<path fill="#08090B" opacity="1.000000" stroke="none" 
	d="
M619.028809,56.674183 
	C620.479431,54.276875 622.375122,54.049740 624.264526,55.305794 
	C625.558899,56.166279 626.047302,57.634064 625.346313,59.274811 
	C624.655640,60.891506 623.393372,61.522011 621.763000,61.317810 
	C619.194702,60.996132 618.577209,59.284534 619.028809,56.674183 
z"/>
<path fill="#08090B" opacity="1.000000" stroke="none" 
	d="
M724.844299,58.633160 
	C724.714050,55.816238 725.991760,54.553188 728.408142,54.623806 
	C730.077332,54.672592 731.186401,55.683643 731.494812,57.358917 
	C731.798279,59.007141 731.215759,60.439857 729.648438,61.015224 
	C727.562561,61.780952 725.687317,61.485981 724.844299,58.633160 
z"/>
<path fill="#08090B" opacity="1.000000" stroke="none" 
	d="
M370.325439,55.553062 
	C371.602325,58.235554 371.743683,60.425465 368.570374,61.239807 
	C366.745209,61.708187 365.354431,60.954407 364.600311,59.120163 
	C364.089630,57.877918 364.408539,56.759796 365.170746,55.862041 
	C366.582123,54.199615 368.321045,54.300320 370.325439,55.553062 
z"/>
<path fill="#0B0C0F" opacity="1.000000" stroke="none" 
	d="
M131.469086,101.331360 
	C130.786209,98.376030 132.008972,96.879059 134.537079,96.525238 
	C135.912415,96.332748 137.158569,96.913475 137.734543,98.324516 
	C138.421844,100.008232 138.322556,101.742561 136.764740,102.769508 
	C134.857300,104.026955 132.997574,103.641869 131.469086,101.331360 
z"/>
<path fill="#0B0C0F" opacity="1.000000" stroke="none" 
	d="
M961.721680,96.523819 
	C964.235779,97.362556 965.443787,98.800392 964.624573,101.107689 
	C964.017761,102.816658 962.574402,103.649773 960.690613,103.375053 
	C958.979126,103.125435 958.056580,102.005333 957.945618,100.360710 
	C957.786499,98.001175 958.915771,96.621529 961.721680,96.523819 
z"/>
<path fill="#08090B" opacity="1.000000" stroke="none" 
	d="
M516.762451,61.316414 
	C514.010254,61.309593 512.703003,60.133385 512.849854,57.644688 
	C512.951050,55.928104 513.904053,54.891277 515.631592,54.671600 
	C517.269897,54.463272 518.632812,54.953270 519.278503,56.573521 
	C520.185547,58.849579 519.390381,60.419346 516.762451,61.316414 
z"/>
<path fill="#08090B" opacity="1.000000" stroke="none" 
	d="
M370.734497,1024.900391 
	C368.824890,1026.805908 366.954285,1026.915894 365.289307,1025.261230 
	C364.142822,1024.121704 364.028961,1022.604858 364.969269,1021.148621 
	C365.922516,1019.672485 367.327209,1019.358887 368.880157,1019.809937 
	C371.458649,1020.558777 371.412628,1022.513794 370.734497,1024.900391 
z"/>
<path fill="#0F1014" opacity="1.000000" stroke="none" 
	d="
M132.791718,495.592163 
	C135.306152,494.607178 137.077515,495.109253 137.905762,497.377167 
	C138.532043,499.092041 138.068909,500.691864 136.344772,501.581604 
	C134.918655,502.317566 133.400253,502.258667 132.261093,501.023407 
	C130.657608,499.284637 130.729858,497.489502 132.791718,495.592163 
z"/>
<path fill="#0D0E11" opacity="1.000000" stroke="none" 
	d="
M132.825989,348.732513 
	C135.375519,347.774384 137.141647,348.313782 137.930710,350.608337 
	C138.525391,352.337646 137.984406,353.943604 136.282593,354.818237 
	C134.849777,355.554657 133.396759,355.415924 132.216644,354.158478 
	C130.491333,352.320099 130.953613,350.589600 132.825989,348.732513 
z"/>
<path fill="#08090B" opacity="1.000000" stroke="none" 
	d="
M470.350494,1023.003052 
	C470.939850,1020.384338 472.310364,1019.273071 474.722870,1019.763489 
	C476.480408,1020.120728 477.170654,1021.339966 477.167267,1023.006042 
	C477.163879,1024.666382 476.490875,1025.891846 474.723145,1026.245605 
	C472.309143,1026.728760 470.941010,1025.619507 470.350494,1023.003052 
z"/>
<path fill="#08090B" opacity="1.000000" stroke="none" 
	d="
M513.683777,1025.403809 
	C512.354309,1022.681702 512.362488,1020.540100 515.500793,1019.748596 
	C517.338989,1019.285095 518.711365,1020.091675 519.448730,1021.910706 
	C519.951050,1023.149902 519.613464,1024.268433 518.835022,1025.158447 
	C517.400818,1026.797974 515.669067,1026.688477 513.683777,1025.403809 
z"/>
<path fill="#08090B" opacity="1.000000" stroke="none" 
	d="
M174.616348,1020.559570 
	C176.835037,1019.284363 178.686966,1019.169617 180.042313,1021.288879 
	C180.833145,1022.525269 180.694336,1023.857849 179.855438,1025.030029 
	C178.850647,1026.433960 177.367615,1026.732544 175.869644,1026.131104 
	C173.161331,1025.043823 173.390869,1022.990540 174.616348,1020.559570 
z"/>
<path fill="#0F1014" opacity="1.000000" stroke="none" 
	d="
M961.014282,648.900757 
	C958.367249,648.119385 957.457153,646.568542 958.055969,644.279480 
	C958.490234,642.619080 959.773743,641.891602 961.415955,641.933167 
	C963.329529,641.981445 964.571228,643.093445 964.782104,644.929688 
	C965.054993,647.305725 963.690979,648.579895 961.014282,648.900757 
z"/>
<path fill="#0B0C0F" opacity="1.000000" stroke="none" 
	d="
M619.030884,1021.706543 
	C620.469727,1019.402954 622.303345,1019.000305 624.204651,1020.320496 
	C625.458740,1021.191284 625.958801,1022.622192 625.273560,1024.256470 
	C624.600403,1025.861938 623.383362,1026.549561 621.763977,1026.325928 
	C619.270874,1025.981323 618.599121,1024.297241 619.030884,1021.706543 
z"/>
<path fill="#0B0C0F" opacity="1.000000" stroke="none" 
	d="
M201.705353,58.686466 
	C200.605087,61.232311 198.928406,61.898010 196.725372,60.999050 
	C195.085739,60.329983 194.717377,58.898479 194.964310,57.288342 
	C195.233337,55.534241 196.460464,54.674679 198.083511,54.632774 
	C200.502533,54.570316 201.684937,55.977547 201.705353,58.686466 
z"/>
<path fill="#08090B" opacity="1.000000" stroke="none" 
	d="
M158.793137,1024.918213 
	C156.867615,1026.780151 154.991058,1026.928345 153.329102,1025.258423 
	C152.186172,1024.110107 152.118744,1022.569580 153.030685,1021.131226 
	C153.971527,1019.647278 155.406677,1019.360901 156.948853,1019.814148 
	C159.518585,1020.569397 159.462524,1022.535461 158.793137,1024.918213 
z"/>
<path fill="#0B0C0F" opacity="1.000000" stroke="none" 
	d="
M899.383057,55.001350 
	C901.483093,56.746876 901.728760,58.582809 900.162781,60.373207 
	C899.068726,61.623997 897.491211,61.721390 896.052917,60.950878 
	C894.609741,60.177742 893.843262,58.843098 894.362366,57.211376 
	C895.088684,54.928020 896.739990,54.159359 899.383057,55.001350 
z"/>
<path fill="#0B0C0F" opacity="1.000000" stroke="none" 
	d="
M238.324951,60.513874 
	C236.592300,58.279331 236.896576,56.472973 238.861343,55.121853 
	C240.209290,54.194893 241.744476,54.382576 243.011765,55.475662 
	C244.331055,56.613575 244.493057,58.173046 243.720352,59.560925 
	C242.529205,61.700382 240.617737,61.775013 238.324951,60.513874 
z"/>
<path fill="#0D0E12" opacity="1.000000" stroke="none" 
	d="
M748.358643,1019.777588 
	C751.116333,1019.433777 752.619568,1020.538086 752.828186,1022.908691 
	C752.971619,1024.538452 752.008972,1025.744629 750.372620,1026.231812 
	C748.748291,1026.715454 747.245850,1026.281616 746.463196,1024.849243 
	C745.357910,1022.826416 745.722290,1020.988037 748.358643,1019.777588 
z"/>
<path fill="#08090B" opacity="1.000000" stroke="none" 
	d="
M831.649292,1020.569702 
	C833.858154,1019.279358 835.697083,1019.176147 837.065186,1021.283447 
	C837.870972,1022.524780 837.728760,1023.835938 836.890991,1025.013306 
	C835.888428,1026.422363 834.412659,1026.735229 832.916138,1026.134155 
	C830.224731,1025.053101 830.400879,1023.013245 831.649292,1020.569702 
z"/>
<path fill="#08090B" opacity="1.000000" stroke="none" 
	d="
M922.201416,1023.665649 
	C921.339417,1026.500122 919.470032,1026.789185 917.388184,1026.019775 
	C915.807739,1025.435913 915.283386,1023.989441 915.574463,1022.351807 
	C915.875366,1020.659668 916.988953,1019.698547 918.665283,1019.653076 
	C921.099731,1019.586914 922.341858,1020.856323 922.201416,1023.665649 
z"/>
<path fill="#0B0C0F" opacity="1.000000" stroke="none" 
	d="
M962.444702,998.814819 
	C964.774475,1000.178406 965.519226,1001.803528 964.127014,1003.933716 
	C963.190063,1005.367493 961.811829,1005.721680 960.200623,1005.229675 
	C958.507935,1004.712708 957.787964,1003.471069 957.934692,1001.806274 
	C958.156860,999.285889 959.756592,998.454224 962.444702,998.814819 
z"/>
<path fill="#08090B" opacity="1.000000" stroke="none" 
	d="
M683.953918,55.083633 
	C686.456055,54.281925 688.287781,54.595493 688.999146,57.045311 
	C689.444702,58.579857 689.100342,60.079567 687.564026,60.896908 
	C686.150024,61.649204 684.591919,61.662086 683.419434,60.471260 
	C681.712708,58.737762 681.976990,56.923412 683.953918,55.083633 
z"/>
<path fill="#0E0F14" opacity="1.000000" stroke="none" 
	d="
M961.003662,620.891235 
	C963.715149,621.198181 965.049438,622.490173 964.786743,624.861938 
	C964.613708,626.424377 963.644409,627.605408 961.926697,627.836914 
	C960.296509,628.056641 958.857544,627.549316 958.240723,625.990417 
	C957.290710,623.589783 958.106445,621.811096 961.003662,620.891235 
z"/>
<path fill="#08090B" opacity="1.000000" stroke="none" 
	d="
M302.566925,60.968407 
	C300.491364,59.212166 300.269226,57.369587 301.822357,55.597588 
	C302.912537,54.353794 304.493011,54.272186 305.924652,55.047501 
	C307.364868,55.827473 308.090881,57.162434 307.587494,58.789093 
	C306.867004,61.117092 305.169464,61.762249 302.566925,60.968407 
z"/>
<path fill="#0D0E12" opacity="1.000000" stroke="none" 
	d="
M641.675354,60.966465 
	C639.590698,59.203243 639.291809,57.384747 640.943848,55.593678 
	C642.066711,54.376331 643.609375,54.209518 645.060974,55.037601 
	C646.483704,55.849281 647.276855,57.174599 646.734009,58.808372 
	C645.979736,61.078499 644.319580,61.850662 641.675354,60.966465 
z"/>
<path fill="#0F1014" opacity="1.000000" stroke="none" 
	d="
M960.252686,585.746155 
	C957.773071,584.437683 957.320374,582.676086 958.401917,580.618408 
	C959.172974,579.151550 960.596497,578.554688 962.190735,579.032898 
	C963.930420,579.554626 965.069824,580.833862 964.814087,582.713928 
	C964.500000,585.022705 963.031555,586.147888 960.252686,585.746155 
z"/>
<path fill="#0F1014" opacity="1.000000" stroke="none" 
	d="
M958.066162,562.664551 
	C957.687683,559.967224 958.510437,558.387146 960.966675,558.061768 
	C962.623108,557.842285 963.837280,558.571655 964.527710,560.109802 
	C965.338562,561.916504 964.753723,563.420166 963.214905,564.395020 
	C961.170044,565.690491 959.463379,564.981995 958.066162,562.664551 
z"/>
<path fill="#0D0E12" opacity="1.000000" stroke="none" 
	d="
M134.223434,537.064209 
	C136.931015,537.242737 138.197922,538.465942 138.081360,540.855042 
	C137.998672,542.549622 136.924286,543.585205 135.371460,543.905273 
	C133.549576,544.280701 132.134674,543.478394 131.483032,541.714233 
	C130.626495,539.395386 131.782394,537.998596 134.223434,537.064209 
z"/>
<path fill="#08090B" opacity="1.000000" stroke="none" 
	d="
M577.965881,55.085152 
	C580.462402,54.282475 582.298584,54.577045 583.006836,57.037640 
	C583.447693,58.569199 583.123596,60.074001 581.587158,60.896229 
	C580.174011,61.652454 578.618042,61.662891 577.443848,60.471912 
	C575.738098,58.741829 575.986877,56.928986 577.965881,55.085152 
z"/>
<path fill="#0D0E12" opacity="1.000000" stroke="none" 
	d="
M132.211380,517.104248 
	C134.449234,515.483887 136.267624,515.733215 137.570023,517.679688 
	C138.576813,519.184326 138.379074,520.803833 136.957047,522.093201 
	C135.712921,523.221252 134.258789,523.386597 132.909225,522.462341 
	C130.990479,521.148376 130.638535,519.382812 132.211380,517.104248 
z"/>
<path fill="#08090B" opacity="1.000000" stroke="none" 
	d="
M304.702148,1026.339478 
	C301.964478,1026.212769 300.693909,1024.996704 300.907043,1022.535828 
	C301.057129,1020.802551 302.148651,1019.877136 303.810028,1019.679932 
	C305.453644,1019.484985 306.782898,1020.095337 307.389130,1021.697449 
	C308.266479,1024.016113 307.312347,1025.502197 304.702148,1026.339478 
z"/>
<path fill="#0B0C0F" opacity="1.000000" stroke="none" 
	d="
M260.632935,1019.849487 
	C263.280090,1019.366394 264.851990,1020.189819 265.151550,1022.647034 
	C265.346771,1024.248047 264.753540,1025.582031 263.089966,1026.139893 
	C261.547150,1026.657227 260.080780,1026.445068 259.170959,1025.004639 
	C257.915680,1023.017517 258.314240,1021.267395 260.632935,1019.849487 
z"/>
<path fill="#0B0C0F" opacity="1.000000" stroke="none" 
	d="
M852.178223,56.548382 
	C853.806213,54.340248 855.657532,53.989395 857.524963,55.401550 
	C858.773438,56.345673 859.277344,57.789352 858.459351,59.399815 
	C857.684448,60.925404 856.424194,61.603516 854.790894,61.309170 
	C852.324646,60.864712 851.605957,59.205967 852.178223,56.548382 
z"/>
<path fill="#08090B" opacity="1.000000" stroke="none" 
	d="
M687.439209,1020.027039 
	C689.514099,1021.779297 689.736816,1023.620361 688.192505,1025.392212 
	C687.106262,1026.638428 685.523621,1026.711792 684.095032,1025.946289 
	C682.652405,1025.173218 681.934021,1023.840271 682.435364,1022.213318 
	C683.151550,1019.889160 684.834595,1019.228882 687.439209,1020.027039 
z"/>
<path fill="#08090B" opacity="1.000000" stroke="none" 
	d="
M791.281372,1026.344604 
	C788.689270,1025.497437 787.691650,1024.027222 788.584717,1021.700073 
	C789.194458,1020.111328 790.520203,1019.477905 792.169067,1019.677368 
	C793.826538,1019.877808 794.924500,1020.792542 795.076660,1022.532227 
	C795.292664,1025.000854 794.009216,1026.205200 791.281372,1026.344604 
z"/>
<path fill="#0B0C0F" opacity="1.000000" stroke="none" 
	d="
M964.065796,1024.962402 
	C962.122864,1026.912476 960.310486,1026.889771 958.697754,1025.149414 
	C957.566528,1023.928955 957.562073,1022.378784 958.485168,1021.029358 
	C959.431885,1019.645447 960.920166,1019.243774 962.444397,1019.868530 
	C964.660828,1020.776855 965.363708,1022.411255 964.065796,1024.962402 
z"/>
<path fill="#0F1014" opacity="1.000000" stroke="none" 
	d="
M216.290070,1021.595093 
	C217.853271,1019.362610 219.675552,1019.028870 221.565796,1020.284180 
	C222.872940,1021.152283 223.400925,1022.628601 222.741791,1024.182373 
	C222.027969,1025.864990 220.657562,1026.737671 218.825516,1026.326294 
	C216.510345,1025.806519 215.664154,1024.226440 216.290070,1021.595093 
z"/>
<path fill="#0D0E12" opacity="1.000000" stroke="none" 
	d="
M451.506042,61.195686 
	C449.201965,59.908249 448.398773,58.326622 449.695679,56.217266 
	C450.681061,54.614655 452.184753,54.218891 453.932617,54.866024 
	C455.528259,55.456787 456.228455,56.710644 456.022705,58.323208 
	C455.715424,60.731518 454.140381,61.567089 451.506042,61.195686 
z"/>
<path fill="#08090B" opacity="1.000000" stroke="none" 
	d="
M433.159241,60.934284 
	C430.603394,61.760582 428.880768,61.196564 428.138031,58.875164 
	C427.632355,57.294670 428.217072,55.880829 429.675903,55.092953 
	C431.068207,54.341003 432.598389,54.335201 433.765869,55.568428 
	C435.450806,57.348347 435.082977,59.129646 433.159241,60.934284 
z"/>
<path fill="#08090B" opacity="1.000000" stroke="none" 
	d="
M895.918457,1025.912231 
	C894.021606,1024.083252 893.720032,1022.272034 895.372375,1020.537415 
	C896.519226,1019.333435 898.073547,1019.323669 899.461609,1020.104492 
	C900.917114,1020.923279 901.396484,1022.379944 900.921204,1023.923523 
	C900.194153,1026.284912 898.427551,1026.731079 895.918457,1025.912231 
z"/>
<path fill="#020203" opacity="1.000000" stroke="none" 
	d="
M391.878113,59.912537 
	C389.957123,61.739216 388.075043,61.880997 386.458374,60.215023 
	C385.345093,59.067795 385.400085,57.441864 386.225464,56.075066 
	C387.112823,54.605724 388.612183,54.339275 390.126678,54.842155 
	C392.555939,55.648773 392.745148,57.488312 391.878113,59.912537 
z"/>
<path fill="#0E0F14" opacity="1.000000" stroke="none" 
	d="
M875.468506,1019.775208 
	C878.123230,1019.422974 879.665405,1020.362915 879.985779,1022.712341 
	C880.207153,1024.335938 879.376831,1025.548340 877.816406,1026.140747 
	C876.054565,1026.809570 874.514771,1026.365967 873.584412,1024.760376 
	C872.382202,1022.685486 873.064148,1021.021057 875.468506,1019.775208 
z"/>
<path fill="#08090B" opacity="1.000000" stroke="none" 
	d="
M343.892212,59.955349 
	C342.562714,57.420017 343.345581,55.798340 345.476044,54.883854 
	C346.957703,54.247875 348.417908,54.641293 349.389893,56.040779 
	C350.338684,57.406948 350.373230,58.887157 349.241669,60.122780 
	C347.632690,61.879673 345.838989,61.823677 343.892212,59.955349 
z"/>
<path fill="#08090B" opacity="1.000000" stroke="none" 
	d="
M852.591675,1025.037842 
	C851.579834,1022.654724 851.743713,1020.808716 854.080139,1019.892029 
	C855.551392,1019.314819 856.984131,1019.556824 858.002563,1020.980225 
	C858.984070,1022.352356 859.049744,1023.774658 857.961670,1025.048584 
	C856.398865,1026.878296 854.621460,1026.809692 852.591675,1025.037842 
z"/>
<path fill="#020203" opacity="1.000000" stroke="none" 
	d="
M816.190308,1023.662109 
	C815.348694,1026.491455 813.486145,1026.741577 811.426392,1026.001221 
	C809.820679,1025.424072 809.414062,1023.955933 809.661011,1022.350708 
	C809.924866,1020.635925 811.041077,1019.739319 812.700439,1019.685425 
	C815.138245,1019.606262 816.321777,1020.893372 816.190308,1023.662109 
z"/>
<path fill="#0B0C0F" opacity="1.000000" stroke="none" 
	d="
M964.121582,941.017212 
	C962.169861,942.957886 960.326416,943.045410 958.684509,941.301880 
	C957.547485,940.094421 957.572266,938.525146 958.476196,937.150146 
	C959.418335,935.716797 960.937012,935.346741 962.442627,935.931335 
	C964.665833,936.794678 965.407898,938.447327 964.121582,941.017212 
z"/>
<path fill="#0D0E11" opacity="1.000000" stroke="none" 
	d="
M323.739655,60.960564 
	C321.724609,59.242569 321.322449,57.478832 322.939545,55.680435 
	C324.188324,54.291676 325.844910,54.174934 327.377258,55.149498 
	C328.718597,56.002579 329.381470,57.407310 328.787689,58.963535 
	C327.962341,61.126717 326.309174,61.855076 323.739655,60.960564 
z"/>
<path fill="#0D0E11" opacity="1.000000" stroke="none" 
	d="
M772.814331,1020.442383 
	C774.573730,1022.654114 774.280090,1024.483276 772.376892,1025.848877 
	C771.083374,1026.776978 769.473267,1026.699463 768.262573,1025.539673 
	C767.119751,1024.444824 766.605896,1023.058594 767.481934,1021.500183 
	C768.716431,1019.304504 770.518250,1019.247070 772.814331,1020.442383 
z"/>
<path fill="#020203" opacity="1.000000" stroke="none" 
	d="
M286.158997,56.684822 
	C286.689026,59.306831 285.974335,60.943016 283.482544,61.273167 
	C281.910492,61.481453 280.484161,61.023289 279.953644,59.307339 
	C279.492004,57.814125 279.499725,56.217846 280.954803,55.317013 
	C282.857941,54.138775 284.711884,54.289772 286.158997,56.684822 
z"/>
<path fill="#08090B" opacity="1.000000" stroke="none" 
	d="
M725.010864,1021.702942 
	C726.442688,1019.385132 728.273926,1019.033752 730.172119,1020.320496 
	C731.467773,1021.198914 731.846863,1022.665222 731.216003,1024.261597 
	C730.575928,1025.881226 729.332153,1026.540405 727.721069,1026.317261 
	C725.227539,1025.971924 724.581543,1024.279785 725.010864,1021.702942 
z"/>
<path fill="#0D0E11" opacity="1.000000" stroke="none" 
	d="
M663.479370,1026.209473 
	C661.125977,1024.946045 660.381470,1023.331604 661.631348,1021.239502 
	C662.592529,1019.630798 664.127869,1019.238464 665.867065,1019.879272 
	C667.442322,1020.459534 668.205017,1021.701355 667.988037,1023.317017 
	C667.670166,1025.684814 666.126648,1026.586060 663.479370,1026.209473 
z"/>
<path fill="#0D0E12" opacity="1.000000" stroke="none" 
	d="
M645.713623,1020.478821 
	C647.501038,1022.719299 647.141846,1024.517456 645.196533,1025.873413 
	C643.850464,1026.811768 642.311096,1026.616089 641.045410,1025.521851 
	C639.737122,1024.390625 639.518799,1022.856445 640.317017,1021.442810 
	C641.519653,1019.312805 643.407837,1019.183960 645.713623,1020.478821 
z"/>
<path fill="#0D0E12" opacity="1.000000" stroke="none" 
	d="
M555.088989,1023.005859 
	C555.709534,1020.390015 557.080078,1019.207886 559.492798,1019.758972 
	C561.155090,1020.138733 562.026245,1021.285767 562.029358,1023.001099 
	C562.032471,1024.719727 561.156250,1025.861572 559.496643,1026.245972 
	C557.080933,1026.805542 555.716614,1025.614746 555.088989,1023.005859 
z"/>
<path fill="#08090B" opacity="1.000000" stroke="none" 
	d="
M539.714417,1020.474487 
	C541.414246,1022.694763 541.115601,1024.520020 539.206360,1025.850098 
	C537.917725,1026.747803 536.338257,1026.644775 535.106018,1025.505981 
	C533.890625,1024.382690 533.565125,1022.919739 534.380798,1021.463013 
	C535.587585,1019.307739 537.448547,1019.280701 539.714417,1020.474487 
z"/>
<path fill="#08090B" opacity="1.000000" stroke="none" 
	d="
M452.213593,1019.659302 
	C454.912018,1019.849731 456.209778,1021.093506 455.957581,1023.510986 
	C455.783203,1025.182251 454.664093,1026.125366 453.002747,1026.322388 
	C451.335083,1026.520142 450.066772,1025.847900 449.498810,1024.253784 
	C448.680725,1021.957397 449.583832,1020.453674 452.213593,1019.659302 
z"/>
<path fill="#0F1014" opacity="1.000000" stroke="none" 
	d="
M428.250732,1021.582092 
	C430.021851,1019.278931 431.882355,1018.912964 433.859009,1020.630432 
	C434.913666,1021.546814 435.291382,1022.837158 434.686768,1024.183228 
	C433.939178,1025.847534 432.609314,1026.727417 430.769409,1026.323975 
	C428.418274,1025.808350 427.661865,1024.190186 428.250732,1021.582092 
z"/>
<path fill="#08090B" opacity="1.000000" stroke="none" 
	d="
M343.869171,1024.953613 
	C342.562134,1022.416321 343.293488,1020.787598 345.484741,1019.872131 
	C347.010223,1019.234924 348.472900,1019.672363 349.439636,1021.032227 
	C350.394684,1022.375610 350.437866,1023.919373 349.289520,1025.138550 
	C347.671143,1026.856812 345.845062,1026.860596 343.869171,1024.953613 
z"/>
<path fill="#0D0E11" opacity="1.000000" stroke="none" 
	d="
M323.160645,1020.425476 
	C325.460052,1019.265076 327.257751,1019.299255 328.500580,1021.511169 
	C329.389282,1023.092834 328.849518,1024.451660 327.711884,1025.544800 
	C326.497040,1026.712158 324.873199,1026.774414 323.589661,1025.851440 
	C321.687347,1024.483643 321.426758,1022.634888 323.160645,1020.425476 
z"/>
<path fill="#08090B" opacity="1.000000" stroke="none" 
	d="
M959.657227,144.978363 
	C957.661743,143.233978 957.314697,141.454422 958.892761,139.645767 
	C960.001709,138.374771 961.537781,138.306107 962.938293,139.057587 
	C964.347412,139.813629 965.074463,141.150055 964.593445,142.761398 
	C963.905640,145.065445 962.260742,145.769424 959.657227,144.978363 
z"/>
<path fill="#020203" opacity="1.000000" stroke="none" 
	d="
M813.631531,61.260754 
	C810.886597,61.370617 809.535889,60.194172 809.604370,57.773289 
	C809.650208,56.153923 810.517822,54.982056 812.269531,54.724533 
	C813.877197,54.488171 815.387817,54.832809 815.952332,56.444122 
	C816.662048,58.469814 816.484741,60.393013 813.631531,61.260754 
z"/>
<path fill="#0D0E11" opacity="1.000000" stroke="none" 
	d="
M216.293121,56.587936 
	C217.851379,54.365021 219.666412,54.013649 221.558807,55.267479 
	C222.867203,56.134377 223.384857,57.609493 222.741119,59.160774 
	C222.037399,60.856583 220.659424,61.699978 218.831940,61.301853 
	C216.504837,60.794888 215.680481,59.210835 216.293121,56.587936 
z"/>
<path fill="#0D0E11" opacity="1.000000" stroke="none" 
	d="
M767.053650,57.999046 
	C767.600647,55.396275 768.979797,54.246239 771.304382,54.707104 
	C773.131958,55.069447 774.100525,56.340858 773.996094,58.225025 
	C773.904541,59.878029 772.942810,60.966183 771.325439,61.268734 
	C769.001587,61.703461 767.604431,60.614456 767.053650,57.999046 
z"/>
<path fill="#0D0E12" opacity="1.000000" stroke="none" 
	d="
M132.201935,458.973328 
	C130.650040,456.687225 130.994736,454.954010 132.931274,453.627289 
	C134.320343,452.675629 135.738861,452.890259 136.966415,454.008057 
	C138.376694,455.292297 138.578781,456.910645 137.563995,458.419800 
	C136.248260,460.376434 134.425140,460.557983 132.201935,458.973328 
z"/>
<path fill="#08090B" opacity="1.000000" stroke="none" 
	d="
M751.671997,55.490604 
	C753.337219,57.707146 753.080078,59.530449 751.142517,60.851654 
	C749.846680,61.735283 748.290222,61.648552 747.049194,60.496990 
	C745.816711,59.353397 745.564148,57.869122 746.350098,56.445114 
	C747.541992,54.285767 749.410278,54.260712 751.671997,55.490604 
z"/>
<path fill="#0D0E12" opacity="1.000000" stroke="none" 
	d="
M131.422607,476.454926 
	C132.765137,474.082367 134.402359,473.452209 136.501709,474.652344 
	C137.967926,475.490479 138.407364,476.898743 137.991913,478.454193 
	C137.510834,480.255432 136.201691,481.235016 134.337128,480.976776 
	C131.997681,480.652771 131.037766,479.116699 131.422607,476.454926 
z"/>
<path fill="#0D0E12" opacity="1.000000" stroke="none" 
	d="
M964.252869,605.243225 
	C962.443115,607.238525 960.677185,607.543579 958.921021,605.877625 
	C957.551453,604.578369 957.496521,602.965027 958.533752,601.443054 
	C959.456726,600.088806 960.888306,599.560181 962.406372,600.189819 
	C964.500122,601.058350 965.390137,602.630981 964.252869,605.243225 
z"/>
<path fill="#08090B" opacity="1.000000" stroke="none" 
	d="
M788.636841,59.313545 
	C787.987427,56.654106 788.876770,55.124355 791.246826,54.701004 
	C792.859741,54.412895 794.192871,55.075417 794.805298,56.657417 
	C795.386108,58.158005 795.229126,59.714455 793.820496,60.633133 
	C791.939270,61.859989 790.100891,61.787312 788.636841,59.313545 
z"/>
<path fill="#0B0C0F" opacity="1.000000" stroke="none" 
	d="
M132.934921,123.888611 
	C130.928543,122.082222 130.580109,120.290108 132.307602,118.504875 
	C133.469971,117.303650 134.957779,117.193932 136.429337,117.977715 
	C137.981796,118.804581 138.402039,120.245789 137.976303,121.804771 
	C137.301666,124.275169 135.449158,124.604019 132.934921,123.888611 
z"/>
<path fill="#08090B" opacity="1.000000" stroke="none" 
	d="
M963.636475,123.502304 
	C961.380066,124.735260 959.497375,124.716835 958.320312,122.563202 
	C957.561035,121.173965 957.739685,119.664406 958.998474,118.512711 
	C960.244751,117.372498 961.784668,117.260574 963.085144,118.144493 
	C965.024658,119.462921 965.250671,121.290054 963.636475,123.502304 
z"/>
<path fill="#08090B" opacity="1.000000" stroke="none" 
	d="
M832.761902,61.103462 
	C830.517700,59.600464 830.238098,57.776848 831.491760,55.884178 
	C832.407715,54.501289 833.946350,54.320881 835.450439,54.912983 
	C837.033569,55.536259 837.679810,56.908863 837.404236,58.469460 
	C836.987488,60.828583 835.411865,61.705906 832.761902,61.103462 
z"/>
<path fill="#0D0E11" opacity="1.000000" stroke="none" 
	d="
M662.246338,55.449165 
	C664.737671,54.094791 666.679626,54.357620 667.793823,56.755760 
	C668.470947,58.213287 668.052979,59.696014 666.724976,60.682446 
	C665.434387,61.641064 663.867126,61.771671 662.616211,60.803795 
	C660.825989,59.418671 660.450684,57.621616 662.246338,55.449165 
z"/>
<path fill="#0D0E12" opacity="1.000000" stroke="none" 
	d="
M131.179932,183.942032 
	C131.882141,181.263596 133.211243,179.866669 135.842026,180.656509 
	C137.464874,181.143707 138.162704,182.355576 138.094666,184.012543 
	C138.026382,185.676407 137.204971,186.798157 135.549301,187.131012 
	C133.213608,187.600555 131.807495,186.532547 131.179932,183.942032 
z"/>
<path fill="#0B0C0F" opacity="1.000000" stroke="none" 
	d="
M131.526093,140.607788 
	C133.044571,138.228317 134.867813,137.942581 136.823044,139.217743 
	C138.259827,140.154800 138.408295,141.728409 137.853210,143.245270 
	C137.256760,144.875137 135.872910,145.496857 134.250763,145.235352 
	C131.840027,144.846725 130.911011,143.307877 131.526093,140.607788 
z"/>
<path fill="#0D0E11" opacity="1.000000" stroke="none" 
	d="
M879.868408,58.706413 
	C878.775757,61.237305 877.099304,61.960083 874.923828,60.989819 
	C873.407288,60.313427 872.793091,58.925568 873.141541,57.290764 
	C873.491333,55.649498 874.624939,54.650360 876.289490,54.629250 
	C878.700195,54.598675 879.880554,55.978481 879.868408,58.706413 
z"/>
<path fill="#0B0C0F" opacity="1.000000" stroke="none" 
	d="
M557.495117,61.191479 
	C555.171082,59.856979 554.471069,58.254101 555.776489,56.123520 
	C556.693604,54.626652 558.088989,54.381634 559.651550,54.822506 
	C561.324158,55.294426 562.111938,56.559311 561.960022,58.182499 
	C561.733826,60.598442 560.208801,61.575363 557.495117,61.191479 
z"/>
<path fill="#0D0E12" opacity="1.000000" stroke="none" 
	d="
M537.096863,54.589561 
	C539.691101,54.883636 541.109802,56.093796 540.844666,58.454884 
	C540.640076,60.276752 539.320435,61.356358 537.485107,61.394650 
	C535.916016,61.427391 534.539368,60.699425 534.123352,59.083080 
	C533.547180,56.844189 534.405212,55.264767 537.096863,54.589561 
z"/>
<path fill="#0D0E12" opacity="1.000000" stroke="none" 
	d="
M959.619629,873.143066 
	C962.140320,872.411682 963.884033,872.932068 964.642761,875.222595 
	C965.252075,877.061646 964.327209,878.358154 962.745239,879.239563 
	C961.216858,880.091125 959.762939,879.646423 958.773560,878.466370 
	C957.286316,876.692505 957.581543,874.861267 959.619629,873.143066 
z"/>
<path fill="#0D0E12" opacity="1.000000" stroke="none" 
	d="
M136.372726,201.859375 
	C138.444504,203.567230 138.713013,205.355270 137.221619,207.149368 
	C136.005966,208.611740 134.292587,208.632690 132.794800,207.710983 
	C131.479507,206.901611 130.722641,205.485336 131.368973,203.921570 
	C132.210938,201.884521 133.717438,200.837494 136.372726,201.859375 
z"/>
<path fill="#0D0E12" opacity="1.000000" stroke="none" 
	d="
M958.998901,202.260132 
	C961.347351,200.667328 963.027893,201.153748 964.318604,203.151245 
	C965.306152,204.679581 964.674744,206.026474 963.617798,207.181824 
	C962.445007,208.463943 960.873169,208.524200 959.558655,207.654556 
	C957.582764,206.347443 957.364136,204.505432 958.998901,202.260132 
z"/>
<path fill="#0F1014" opacity="1.000000" stroke="none" 
	d="
M131.192108,289.050781 
	C131.603470,286.477051 132.849060,285.045807 135.178680,285.335510 
	C136.942673,285.554871 138.082718,286.754944 138.108658,288.687103 
	C138.130890,290.343231 137.364334,291.546448 135.761551,291.987061 
	C133.472015,292.616547 131.997406,291.600372 131.192108,289.050781 
z"/>
<path fill="#0D0E11" opacity="1.000000" stroke="none" 
	d="
M135.790176,333.959167 
	C132.997543,334.325409 131.492615,333.223145 131.230606,330.864807 
	C131.047852,329.219696 132.073517,328.048065 133.605347,327.433777 
	C135.261673,326.769531 136.662918,327.426331 137.500656,328.762421 
	C138.769302,330.785767 138.195831,332.567535 135.790176,333.959167 
z"/>
<path fill="#0B0C0F" opacity="1.000000" stroke="none" 
	d="
M131.222382,393.221069 
	C132.190140,390.749054 133.609131,389.537811 135.977219,390.448730 
	C137.543015,391.051025 138.274063,392.337555 138.067047,394.034271 
	C137.861908,395.715668 136.898300,396.814453 135.205170,397.003937 
	C132.734833,397.280365 131.535538,395.889709 131.222382,393.221069 
z"/>
<path fill="#08090B" opacity="1.000000" stroke="none" 
	d="
M406.960327,1023.706787 
	C406.827820,1020.925964 408.048096,1019.663025 410.422333,1019.663635 
	C412.114288,1019.664001 413.129333,1020.737976 413.514954,1022.311035 
	C413.915009,1023.943115 413.225922,1025.307617 411.780365,1025.952271 
	C409.695984,1026.881836 407.957611,1026.333862 406.960327,1023.706787 
z"/>
<path fill="#0D0E12" opacity="1.000000" stroke="none" 
	d="
M131.199951,268.070129 
	C131.644043,265.436157 132.940979,264.034668 135.331970,264.402771 
	C136.901001,264.644348 137.993256,265.722168 138.089935,267.490234 
	C138.182358,269.180389 137.514587,270.470367 135.880234,270.968536 
	C133.562180,271.675049 132.022400,270.692108 131.199951,268.070129 
z"/>
<path fill="#0B0C0F" opacity="1.000000" stroke="none" 
	d="
M134.247467,411.170898 
	C136.970139,411.424072 138.296799,412.675293 138.045792,415.120880 
	C137.873703,416.797760 136.811401,417.813354 135.118423,418.022552 
	C133.427643,418.231476 132.165314,417.516724 131.536758,415.940094 
	C130.587280,413.558502 131.801056,412.164703 134.247467,411.170898 
z"/>
<path fill="#08090B" opacity="1.000000" stroke="none" 
	d="
M244.059692,1023.016724 
	C243.608292,1025.837769 242.042236,1026.687744 239.737701,1026.213257 
	C238.069733,1025.869751 237.189453,1024.616699 237.198013,1022.990601 
	C237.206543,1021.368286 238.085571,1020.115295 239.761703,1019.787354 
	C242.066879,1019.336426 243.634399,1020.183838 244.059692,1023.016724 
z"/>
<path fill="#0D0E11" opacity="1.000000" stroke="none" 
	d="
M958.093811,667.565796 
	C957.687744,664.815918 958.607605,663.274048 961.064087,662.982178 
	C962.758667,662.780762 963.923157,663.652466 964.562073,665.208923 
	C965.238159,666.855835 964.624512,668.199768 963.308960,669.129272 
	C961.251831,670.582825 959.562500,669.833923 958.093811,667.565796 
z"/>
<path fill="#0B0C0F" opacity="1.000000" stroke="none" 
	d="
M964.600342,686.293091 
	C964.977539,689.069214 963.778931,690.536377 961.480225,690.809082 
	C959.872925,690.999817 958.587097,690.071350 958.080994,688.445374 
	C957.585144,686.852661 957.953430,685.376221 959.423462,684.519714 
	C961.492126,683.314392 963.244263,683.798950 964.600342,686.293091 
z"/>
<path fill="#0D0E11" opacity="1.000000" stroke="none" 
	d="
M963.240479,726.419922 
	C965.224182,728.391479 965.333008,730.213684 963.554321,731.879089 
	C962.354065,733.002747 960.900513,733.160156 959.437317,732.181946 
	C957.983948,731.210327 957.544861,729.792725 958.075623,728.261536 
	C958.888000,725.917847 960.710693,725.493042 963.240479,726.419922 
z"/>
<path fill="#0D0E11" opacity="1.000000" stroke="none" 
	d="
M961.748657,753.760864 
	C958.875854,753.424438 957.510681,752.041016 958.018738,749.452942 
	C958.379700,747.613892 959.753723,746.803467 961.627441,746.897522 
	C963.103516,746.971619 964.075623,747.786072 964.543335,749.114014 
	C965.370361,751.462402 964.110413,752.788025 961.748657,753.760864 
z"/>
<path fill="#0F1014" opacity="1.000000" stroke="none" 
	d="
M960.986450,788.851807 
	C963.807617,789.066284 965.030823,790.452209 964.715820,792.827271 
	C964.501526,794.442871 963.292358,795.501587 961.653809,795.678284 
	C960.014648,795.855042 958.654968,795.097290 958.142517,793.499451 
	C957.416748,791.236267 958.209900,789.596313 960.986450,788.851807 
z"/>
<path fill="#0D0E11" opacity="1.000000" stroke="none" 
	d="
M963.835022,810.880554 
	C965.435425,813.280579 964.900391,814.953308 962.882385,816.233521 
	C961.366516,817.195251 959.964600,816.726135 958.826111,815.585144 
	C957.634888,814.391296 957.490906,812.844849 958.390930,811.472717 
	C959.732788,809.427063 961.591797,809.370667 963.835022,810.880554 
z"/>
<path fill="#0D0E12" opacity="1.000000" stroke="none" 
	d="
M134.991150,858.737671 
	C132.562927,858.441467 131.274765,857.246094 131.264038,855.157471 
	C131.257065,853.800537 132.024933,852.571716 133.399384,852.102966 
	C135.133835,851.511414 136.784164,851.822327 137.627304,853.603455 
	C138.791000,856.061584 137.720367,857.705444 134.991150,858.737671 
z"/>
<path fill="#08090B" opacity="1.000000" stroke="none" 
	d="
M409.247192,61.209164 
	C406.687042,59.999836 406.371399,58.159424 407.370972,56.188171 
	C408.103882,54.742813 409.601044,54.373768 411.194458,54.793961 
	C412.870819,55.236027 413.708130,56.562199 413.596161,58.069645 
	C413.427551,60.339657 412.003632,61.554985 409.247192,61.209164 
z"/>
<path fill="#0D0E11" opacity="1.000000" stroke="none" 
	d="
M137.634857,874.452148 
	C138.469360,877.037476 137.818069,878.743164 135.569321,879.557007 
	C133.940125,880.146729 132.699890,879.385376 131.805756,878.007874 
	C130.866180,876.560303 130.983704,875.130005 132.197357,873.954895 
	C133.934738,872.272766 135.725494,872.487488 137.634857,874.452148 
z"/>
<path fill="#08090B" opacity="1.000000" stroke="none" 
	d="
M959.625366,81.962509 
	C957.714172,80.198204 957.220703,78.424530 958.884155,76.616241 
	C960.018555,75.383057 961.554932,75.315544 962.969849,76.064194 
	C964.407654,76.825043 965.122314,78.136604 964.600952,79.776894 
	C963.869568,82.078300 962.228210,82.774391 959.625366,81.962509 
z"/>
<path fill="#08090B" opacity="1.000000" stroke="none" 
	d="
M135.002884,61.396385 
	C132.298294,61.087715 131.003189,59.743832 131.299637,57.380356 
	C131.503586,55.754333 132.711258,54.813499 134.398834,54.637882 
	C136.108322,54.459984 137.422058,55.178688 137.878723,56.780537 
	C138.512177,59.002487 137.739563,60.688778 135.002884,61.396385 
z"/>
<path fill="#08090B" opacity="1.000000" stroke="none" 
	d="
M958.144531,56.554733 
	C959.739502,54.248127 961.602844,54.064484 963.454712,55.418308 
	C964.721436,56.344326 965.219116,57.730438 964.394958,59.373150 
	C963.612915,60.931908 962.321899,61.601479 960.753296,61.348328 
	C958.269226,60.947449 957.705322,59.137226 958.144531,56.554733 
z"/>
<path fill="#08090B" opacity="1.000000" stroke="none" 
	d="
M576.705811,1021.673096 
	C578.178101,1019.256653 580.005676,1019.123901 581.882202,1020.371582 
	C583.272766,1021.296204 583.417603,1022.862183 582.847961,1024.348999 
	C582.243896,1025.925537 580.906677,1026.588257 579.299927,1026.288452 
	C576.950989,1025.850464 576.058411,1024.326660 576.705811,1021.673096 
z"/>
<path fill="#08090B" opacity="1.000000" stroke="none" 
	d="
M195.177338,1021.580811 
	C196.763687,1019.364441 198.609756,1019.026001 200.435394,1020.426453 
	C201.626953,1021.340576 202.140335,1022.758362 201.347519,1024.380493 
	C200.585541,1025.939453 199.351791,1026.561768 197.755157,1026.292358 
	C195.285706,1025.875732 194.675949,1024.167236 195.177338,1021.580811 
z"/>
<path fill="#08090B" opacity="1.000000" stroke="none" 
	d="
M136.956299,1020.436279 
	C138.652313,1022.627686 138.399841,1024.471924 136.562744,1025.869873 
	C135.266235,1026.856323 133.639984,1026.651611 132.454529,1025.552734 
	C131.320023,1024.501221 130.765091,1023.119812 131.630081,1021.537292 
	C132.852249,1019.301331 134.658112,1019.315979 136.956299,1020.436279 
z"/>
<path fill="#08090B" opacity="1.000000" stroke="none" 
	d="
M136.951813,999.434204 
	C138.669540,1001.626770 138.396484,1003.465637 136.533112,1004.826477 
	C135.259140,1005.756897 133.615738,1005.688049 132.429352,1004.530273 
	C131.331711,1003.459106 130.727020,1002.065186 131.606262,1000.505249 
	C132.836487,998.322815 134.656647,998.300720 136.951813,999.434204 
z"/>
<path fill="#08090B" opacity="1.000000" stroke="none" 
	d="
M136.360535,941.959595 
	C133.752655,942.789612 132.121506,942.082703 131.387985,939.781555 
	C130.865616,938.142944 131.552841,936.821045 133.003525,936.063843 
	C134.415482,935.326843 135.949310,935.366394 137.089783,936.612854 
	C138.744919,938.421692 138.303192,940.194397 136.360535,941.959595 
z"/>
<path fill="#020202" opacity="1.000000" stroke="none" 
	d="
M937.715454,1025.360840 
	C936.475830,1023.049133 936.430115,1021.211243 938.617493,1020.033752 
	C939.848633,1019.370972 941.194397,1019.502441 942.247498,1020.487610 
	C943.435425,1021.599060 943.748413,1023.030945 942.982605,1024.485962 
	C941.816956,1026.700439 940.012512,1026.695190 937.715454,1025.360840 
z"/>
<path fill="#000000" opacity="1.000000" stroke="none" 
	d="
M496.654663,60.886444 
	C494.042419,61.637981 492.361359,61.105667 491.824860,58.652775 
	C491.526489,57.288834 491.889282,56.008736 493.132507,55.240395 
	C494.503479,54.393124 496.038544,54.351593 497.185486,55.526573 
	C498.814911,57.195801 498.659302,59.012287 496.654663,60.886444 
z"/>
<path fill="#000000" opacity="1.000000" stroke="none" 
	d="
M704.569397,1020.602051 
	C706.689026,1019.387329 708.465149,1019.286438 709.715454,1021.078552 
	C710.625854,1022.383484 710.565308,1023.940369 709.512390,1025.217041 
	C708.586731,1026.339478 707.247742,1026.632690 705.920776,1026.129272 
	C703.263000,1025.120972 703.190063,1023.175415 704.569397,1020.602051 
z"/>
<path fill="#000000" opacity="1.000000" stroke="none" 
	d="
M597.682861,1023.002808 
	C598.184387,1020.118469 599.755676,1019.325012 602.055664,1019.869507 
	C603.788391,1020.279724 604.373047,1021.626587 604.293823,1023.248474 
	C604.224121,1024.674805 603.560974,1025.802124 602.059021,1026.140259 
	C599.751282,1026.659668 598.187561,1025.883911 597.682861,1023.002808 
z"/>
<path fill="#000000" opacity="1.000000" stroke="none" 
	d="
M494.147614,1026.204834 
	C491.441162,1024.983032 491.196960,1023.143005 492.231110,1021.150085 
	C493.015533,1019.638367 494.547791,1019.460999 496.109863,1019.868774 
	C497.600342,1020.257874 498.273956,1021.374329 498.301025,1022.792053 
	C498.348022,1025.251831 496.975769,1026.360107 494.147614,1026.204834 
z"/>
<path fill="#000000" opacity="1.000000" stroke="none" 
	d="
M386.121704,1024.686890 
	C385.461334,1022.085205 385.836029,1020.292236 388.386871,1019.769226 
	C389.768341,1019.486023 391.052826,1019.841919 391.829926,1021.118774 
	C392.684143,1022.522339 392.709595,1024.075806 391.538300,1025.232666 
	C389.852692,1026.897705 388.007172,1026.700195 386.121704,1024.686890 
z"/>
<path fill="#000000" opacity="1.000000" stroke="none" 
	d="
M285.389282,1020.625977 
	C286.725403,1023.008179 286.663177,1024.867065 284.390839,1026.003296 
	C283.114594,1026.641357 281.761688,1026.409668 280.702850,1025.363281 
	C279.632660,1024.305664 279.463196,1022.920715 280.057770,1021.664185 
	C281.143616,1019.369629 282.997528,1019.257019 285.389282,1020.625977 
z"/>
<path fill="#020202" opacity="1.000000" stroke="none" 
	d="
M917.252563,60.903915 
	C915.263550,59.035149 915.038452,57.231937 916.689148,55.538124 
	C917.846985,54.350075 919.366943,54.395782 920.743469,55.231647 
	C921.994507,55.991341 922.379883,57.267677 922.085571,58.636612 
	C921.558105,61.089909 919.866699,61.623528 917.252563,60.903915 
z"/>
<path fill="#000000" opacity="1.000000" stroke="none" 
	d="
M704.101196,59.664474 
	C703.343445,57.054543 703.873840,55.359951 706.292236,54.783058 
	C707.653870,54.458279 708.925720,54.864922 709.676575,56.123959 
	C710.496216,57.498528 710.557190,59.031559 709.409668,60.194500 
	C707.754333,61.872005 705.953003,61.710720 704.101196,59.664474 
z"/>
<path fill="#000000" opacity="1.000000" stroke="none" 
	d="
M599.322998,60.886749 
	C597.347778,59.007423 597.151001,57.182392 598.792053,55.515884 
	C599.936523,54.353634 601.482483,54.381542 602.851868,55.241859 
	C604.081177,56.014164 604.474304,57.287487 604.171143,58.657082 
	C603.627136,61.114712 601.927002,61.620602 599.322998,60.886749 
z"/>
<path fill="#020202" opacity="1.000000" stroke="none" 
	d="
M177.910522,54.787415 
	C180.451248,56.039852 180.961960,57.742817 179.836288,59.797565 
	C179.024033,61.280212 177.592178,61.568531 176.023468,61.131222 
	C174.572968,60.726868 173.894302,59.654350 173.846573,58.233349 
	C173.763916,55.772488 175.137131,54.702724 177.910522,54.787415 
z"/>
<path fill="#9CA5D3" opacity="1.000000" stroke="none" 
	d="
M536.876465,880.108643 
	C543.765625,889.920105 543.664490,900.063782 539.280945,910.279114 
	C537.040649,915.499817 532.787903,918.612610 526.763794,918.679504 
	C520.753601,918.746277 516.501465,915.757568 514.018433,910.610291 
	C509.812592,901.891479 509.644470,892.814880 513.725586,884.057861 
	C518.097900,874.675964 528.296936,872.978638 536.876465,880.108643 
z"/>
<path fill="#929CC7" opacity="1.000000" stroke="none" 
	d="
M467.800476,295.307495 
	C458.258636,295.305725 458.274170,295.310516 461.006165,286.460541 
	C462.556274,281.439178 464.045654,276.399048 466.733856,271.180969 
	C468.967010,278.596497 471.674591,285.915619 473.209930,293.472900 
	C473.863800,296.691376 469.968567,294.635895 467.800476,295.307495 
z"/>
<path fill="#97A0CD" opacity="1.000000" stroke="none" 
	d="
M717.649414,897.052979 
	C707.328369,897.810059 707.328308,897.810059 707.328308,887.870789 
	C707.328308,886.876709 707.184814,885.857300 707.355225,884.893372 
	C707.870544,881.979065 705.673950,878.266663 708.834412,876.242065 
	C712.000122,874.214111 724.596863,876.840210 726.751892,879.592529 
	C729.726135,883.391357 729.589111,887.678589 727.630676,891.793823 
	C725.787720,895.666504 722.074951,896.727051 717.649414,897.052979 
z"/>
</svg>